<svg width="64" height="64" viewBox="0 0 64 64" fill="none" xmlns="http://www.w3.org/2000/svg">
<g clip-path="url(#clip0)">
<path d="M63.9401 31.9761C63.9401 40.4549 60.5719 48.5864 54.5765 54.5818C48.5811 60.5772 40.4496 63.9454 31.9708 63.9454C23.492 63.9454 15.3605 60.5772 9.36508 54.5818C3.36968 48.5864 0.00149536 40.4549 0.00149536 31.9761C0.00149536 23.4973 3.36968 15.3658 9.36508 9.37042C15.3605 3.37502 23.492 0.00683594 31.9708 0.00683594C40.4496 0.00683594 48.5811 3.37502 54.5765 9.37042C60.5719 15.3658 63.9401 23.4973 63.9401 31.9761Z" fill="white"/>
<path d="M31.9706 -3.11533e-05C14.3104 -3.11533e-05 0 14.3212 0 31.9904C0 49.6614 14.3104 64 31.9706 64C45.1053 64 56.3866 56.0627 61.3037 44.7232H59.8848V37.0208H61.2032V43.5641H61.783C63.2152 39.8738 63.947 35.9489 63.9411 31.9904C63.9411 22.4608 59.776 13.9148 53.1712 8.05629L35.4272 11.3184V8.01725L39.8035 7.42781V3.69405L35.4272 3.08477V0.176609C34.2789 0.057377 33.1251 -0.00158388 31.9706 -3.11533e-05ZM42.7802 4.18557V6.93629L50.2534 5.73757C50.0115 5.57117 49.7619 5.40861 49.5142 5.24669L42.7808 4.18557H42.7802ZM35.4074 12.6348H55.2288V17.351C55.2288 21.166 53.6128 23.1673 49.3946 23.1673C46.2106 23.1673 44.8998 21.8854 44.3789 20.7308L35.4074 23.639V20.1804L43.6397 17.7638C43.5866 17.3248 43.5597 16.6208 43.5597 16.0147H35.4074V12.6355V12.6348ZM46.3174 16.2112V17.3504C46.3174 19.1904 47.0355 19.9251 49.3946 19.9251C51.751 19.9251 52.4115 19.1904 52.4115 17.351V16.2118H46.3174V16.2112ZM35.4074 25.4464H55.2288V28.8857H47.8957V28.9638L55.2288 32.5401V35.9001L47.8157 32.206L35.4074 36.3724V32.9331L44.6586 30.1824V30.1036L42.4608 28.8857H35.4074V25.4464ZM27.7146 28.5516C29.1002 28.5516 29.7728 29.4284 29.7728 30.5164V34.4857C29.7728 35.575 29.1002 36.4505 27.7146 36.4505C26.3302 36.4505 25.7363 35.575 25.7363 34.4857V30.5164C25.7363 29.4284 26.3302 28.5516 27.7139 28.5516H27.7146ZM20.7206 28.6892H22.6989C24.1165 28.6892 24.7571 29.3996 24.7571 30.7129C24.7571 31.3734 24.4358 32.0665 23.7978 32.3244C24.4717 32.6227 24.8973 33.1609 24.8973 34.1516C24.8973 35.4227 24.3405 36.3724 22.839 36.3724H20.7206V28.6886V28.6892ZM30.7315 28.6892H32.0307V31.518L33.4893 28.6892H34.7885L33.3491 31.518L34.928 36.3718H33.6096L32.5101 32.7955L32.0301 33.6211V36.3718H30.7315V28.6892ZM27.5347 29.7107C27.1482 29.7766 27.0355 30.0736 27.0355 30.5753V34.4857C27.0355 35.0624 27.1808 35.2915 27.7139 35.2915C28.247 35.2915 28.4736 35.0624 28.4736 34.4851V30.5753C28.4736 30.0019 28.247 29.7113 27.7146 29.7113C27.648 29.7113 27.5898 29.7011 27.5347 29.7113V29.7107ZM22.0198 29.7696V31.8528H22.4998C23.0016 31.8528 23.3984 31.4892 23.3984 30.8505C23.3984 30.1363 23.1635 29.7696 22.5792 29.7696H22.0198ZM22.0198 32.9331V35.2915H22.5792C23.2858 35.2915 23.5386 34.871 23.5386 34.0928C23.5386 33.3024 23.2851 32.9331 22.4992 32.9331H22.0192H22.0198ZM35.4074 37.0598H36.7661V40.1644H38.1446V37.0598H39.4438V44.743H38.144V41.3043H36.7654V44.743H35.4067V37.0598H35.4074ZM41.5814 37.0598H43.2198L44.599 44.743H43.36L43.0803 42.9939H41.6416L41.4419 44.743H40.1427L41.5814 37.0598ZM45.2781 37.0598H46.5171L48.0954 41.4419V37.0598H49.3344V44.743H48.1555L46.5171 39.8892H46.4371V44.743H45.2787V37.0598H45.2781ZM50.4934 37.0598H52.4915C53.8547 37.0598 54.5498 37.7638 54.5498 39.3395V42.3852C54.5498 43.9648 53.8554 44.743 52.4915 44.743H50.4934V37.0598ZM55.5091 37.0598H59.0656V38.199H56.8678V40.1644H58.5862V41.3036H56.8678V43.6032H59.2051V44.7424H55.5091V37.0604V37.0598ZM51.792 38.1408V43.662H52.272C52.9747 43.662 53.2307 43.3913 53.2307 42.5817V39.2217C53.2307 38.4128 52.9747 38.1401 52.272 38.1401H51.792V38.1408ZM42.3213 38.5337L41.8413 41.8547H42.8806L42.4006 38.5331H42.3213V38.5337Z" fill="#EC6900"/>
</g>
<defs>
<clipPath id="clip0">
<rect width="64" height="64" fill="white"/>
</clipPath>
</defs>
</svg>
